# xmcd
#
# Track frame offsets: 
#        182
#        27322
#        54167
#        87330
#        112460
#        135135
#        154772
#        177962
#        204910
#        224185
#        246560
#        269167
#        287192
#
# Disc length: 4067 seconds
#
# Revision: 5
# Processed by: cddbd v1.5.2PL0 Copyright (c) Steve Scherf et al.
# Submitted via: ExactAudioCopyFreeDBPlugin 1.0
#
DISCID=cc0fe10d
DTITLE=Kenny G - The Moment
DYEAR=1996
DGENRE=Blues
TTITLE0=The Moment
TTITLE1=Passages
TTITLE2=Havana
TTITLE3=Always
TTITLE4=That Somebody Was You
TTITLE5=The Champion's Theme
TTITLE6=Eastside Jam
TTITLE7=Moonlight
TTITLE8=Gettin' On The Step
TTITLE9=Everytime I Close My Eyes
TTITLE10=Northern Lights
TTITLE11=Innocence
TTITLE12=Havana (Remix)
EXTD=Kenny G, sax\nWalter Afanasieff, piano\nPaulinho De Costa, Percus
EXTD=sion\nMichael Thompson, guitar\n\nvon Brigitte Walther erhalten Y
EXTD=EAR: 1996
EXTT0=
EXTT1=
EXTT2=
EXTT3=
EXTT4=With Toni Braxton
EXTT5=
EXTT6=
EXTT7=
EXTT8=
EXTT9=With Babyface
EXTT10=
EXTT11=
EXTT12=
PLAYORDER=
